<?xml version="1.0" encoding="UTF-8"?>
<svg id="Layer_1" xmlns="http://www.w3.org/2000/svg" version="1.1" xmlns:xlink="http://www.w3.org/1999/xlink" viewBox="0 0 73.92 44.91">
  <!-- Generator: Adobe Illustrator 30.2.1, SVG Export Plug-In . SVG Version: 2.1.1 Build 1)  -->
  <defs>
    <style>
      .st0 {
        fill: #2b8786;
      }

      .st1 {
        font-size: 25.15px;
      }

      .st1, .st2 {
        font-family: ArimoRoman-Bold, 'ArimoRoman Bold';
        font-weight: 700;
      }

      .st3, .st2 {
        fill: #141935;
      }

      .st4 {
        fill: #fff;
      }

      .st2 {
        font-size: 25.51px;
      }

      .st5 {
        fill: #f1f1f1;
      }
    </style>
    <path id="path" d="M1963.3-89.52c0,65.92-53.44,119.36-119.36,119.36s-119.36-53.44-119.36-119.36,53.44-119.36,119.36-119.36,119.36,53.44,119.36,119.36Z"/>
  </defs>
  <circle class="st5" cx="-1021.37" cy="153.37" r="141.73"/>
  <g>
    <path class="st0" d="M-1044.13,114.28s-.1-.01-.12-.06c-.01-.03,0-.07.02-.09,3.3-3.34,7.04-6.13,11.21-8.35,14.68-7.83,30.84-3.48,42.91,6.84,4.32,3.69,8.16,7.69,11.54,12,1.16,1.48,2.23,2.98,3.19,4.5.03.04.01.1-.03.12-.02.01-.04.01-.06.01-.1-.01-.19-.05-.26-.11-2.25-1.73-4.58-3.43-7.02-5.09-2.41-1.65-4.9-3.11-7.45-4.4-12.07-6.07-25.32-9.33-38.71-8.3-2.38.18-5.34.57-8.87,1.16-2.06.35-4.89,1.26-6.36,1.75h0Z"/>
    <path class="st0" d="M-1043.07,127.76c.07-.4.05-.72-.07-.98-.8-1.71-1.83-3.54-3.11-5.5,4.19-.97,7.7-1.63,10.54-1.98,15.18-1.88,29.63.3,43.35,6.55,8.83,4.01,16.56,9.35,23.22,16.01.9.9,1.72,1.79,2.46,2.68.08.1.23.12.33.04.01-.01.02-.02.03-.03,4.18-4.91,8.68-9.5,13.51-13.75,2.99-2.64,5.61-4.65,7.82-6.03,2.6-1.62,5.24-2.96,7.92-4.02.15-.06.31.01.37.16.02.04.02.09.02.14-.57,5.04-1.89,9.93-3.98,14.79-2.82,6.54-6.38,12.73-10.69,18.56-.13.17-.13.4,0,.57,4.52,6.18,8.2,12.78,11.04,19.8,1.85,4.57,3.13,9.31,3.84,14.22.03.18-.1.35-.28.37-.03,0-.06,0-.1,0-.3-.05-.72-.17-1.25-.37-4.04-1.51-7.85-3.73-11.44-6.66-5.97-4.86-11.52-10.31-16.65-16.33-.09-.11-.25-.12-.37-.03-.01.01-.03.03-.04.05-.37.51-.72.93-1.05,1.28-4.64,4.83-9.69,8.98-15.15,12.46-16.22,10.32-34.02,14.4-53.41,12.25-.2-.02-.35-.21-.32-.41,0-.06.03-.11.06-.16,6.04-9.1,9.05-18.9,9.04-29.39,0-5.56-.83-10.77-2.47-15.63-2.37-7-6.82-13.82-12.7-18.6-.12-.1-.28-.11-.48-.03h0Z"/>
    <path class="st3" d="M-1046.24,121.28c1.27,1.96,2.31,3.79,3.11,5.5.12.25.14.58.07.98,3.07,4.8,5.21,9.87,6.42,15.22,1.03,4.58,1.52,9.33,1.46,14.24-.15,11.64-4.04,23.06-10.93,32.37-.1.14-.28.2-.45.16-5.26-1.38-10.43-3.35-15.51-5.91-12.2-6.15-22.24-16.15-28.96-28-.13-.23-.12-.52.02-.75,1.55-2.4,3.03-4.62,4.45-6.63,6.11-8.7,14.66-15.91,24.2-20.92.49-.25,2.47-1.2,5.94-2.84,1.67-.79,5.07-1.93,10.2-3.43h0ZM-1060.04,139.38c-3.03.51-5.06,3.42-4.54,6.49.52,3.07,3.39,5.14,6.43,4.63q2.02-.34,0,0c3.03-.51,5.06-3.42,4.54-6.49-.52-3.07-3.39-5.14-6.43-4.63h0Z"/>
    <path class="st0" d="M-1098.56,167.07c5-.78,9.7,2.73,10.49,7.83.79,5.1-2.63,9.86-7.63,10.63h0c-5,.78-9.7-2.73-10.49-7.83h0c-.79-5.1,2.63-9.86,7.63-10.63h0ZM-1098.55,172.5c0-1.09-.88-1.96-1.96-1.96h0c-1.09,0-1.96.88-1.96,1.96h0c0,1.09.88,1.96,1.96,1.96h0c1.09,0,1.96-.88,1.96-1.96h0Z"/>
    <path class="st0" d="M-1068.39,189.05c2.5,5.71-.16,12.4-5.96,14.94-5.79,2.54-12.52-.02-15.03-5.73-2.5-5.71.16-12.4,5.96-14.94,5.79-2.54,12.52.02,15.03,5.73ZM-1080.78,189.17c0-1.29-1.04-2.33-2.33-2.33h0c-1.29,0-2.33,1.05-2.33,2.33s1.04,2.33,2.33,2.33,2.33-1.05,2.33-2.33h0Z"/>
  </g>
  <circle class="st5" cx="-1486.18" cy="153.37" r="141.73"/>
  <g>
    <path class="st0" d="M-1508.94,114.28s-.1-.01-.12-.06c-.01-.03,0-.07.02-.09,3.3-3.34,7.04-6.13,11.21-8.35,14.68-7.83,30.84-3.48,42.91,6.84,4.32,3.69,8.16,7.69,11.54,12,1.16,1.48,2.23,2.98,3.19,4.5.03.04.01.1-.03.12-.02.01-.04.01-.06.01-.1-.01-.19-.05-.26-.11-2.25-1.73-4.58-3.43-7.02-5.09-2.41-1.65-4.9-3.11-7.45-4.4-12.07-6.07-25.32-9.33-38.71-8.3-2.38.18-5.34.57-8.87,1.16-2.06.35-4.89,1.26-6.36,1.75h0Z"/>
    <path class="st0" d="M-1507.87,127.76c.07-.4.05-.72-.07-.98-.8-1.71-1.83-3.54-3.11-5.5,4.19-.97,7.7-1.63,10.54-1.98,15.18-1.88,29.63.3,43.35,6.55,8.83,4.01,16.56,9.35,23.22,16.01.9.9,1.72,1.79,2.46,2.68.08.1.23.12.33.04.01-.01.02-.02.03-.03,4.18-4.91,8.68-9.5,13.51-13.75,2.99-2.64,5.61-4.65,7.82-6.03,2.6-1.62,5.24-2.96,7.92-4.02.15-.06.31.01.37.16.02.04.02.09.02.14-.57,5.04-1.89,9.93-3.98,14.79-2.82,6.54-6.38,12.73-10.69,18.56-.13.17-.13.4,0,.57,4.52,6.18,8.2,12.78,11.04,19.8,1.85,4.57,3.13,9.31,3.84,14.22.03.18-.1.35-.28.37-.03,0-.06,0-.1,0-.3-.05-.72-.17-1.25-.37-4.04-1.51-7.85-3.73-11.44-6.66-5.97-4.86-11.52-10.31-16.65-16.33-.09-.11-.25-.12-.37-.03-.01.01-.03.03-.04.05-.37.51-.72.93-1.05,1.28-4.64,4.83-9.69,8.98-15.15,12.46-16.22,10.32-34.02,14.4-53.41,12.25-.2-.02-.35-.21-.32-.41,0-.06.03-.11.06-.16,6.04-9.1,9.05-18.9,9.04-29.39,0-5.56-.83-10.77-2.47-15.63-2.37-7-6.82-13.82-12.7-18.6-.12-.1-.28-.11-.48-.03h0Z"/>
    <path class="st3" d="M-1511.04,121.28c1.27,1.96,2.31,3.79,3.11,5.5.12.25.14.58.07.98,3.07,4.8,5.21,9.87,6.42,15.22,1.03,4.58,1.52,9.33,1.46,14.24-.15,11.64-4.04,23.06-10.93,32.37-.1.14-.28.2-.45.16-5.26-1.38-10.43-3.35-15.51-5.91-12.2-6.15-22.24-16.15-28.96-28-.13-.23-.12-.52.02-.75,1.55-2.4,3.03-4.62,4.45-6.63,6.11-8.7,14.66-15.91,24.2-20.92.49-.25,2.47-1.2,5.94-2.84,1.67-.79,5.07-1.93,10.2-3.43h0ZM-1524.85,139.38c-3.03.51-5.06,3.42-4.54,6.49.52,3.07,3.39,5.14,6.43,4.63q2.02-.34,0,0c3.03-.51,5.06-3.42,4.54-6.49-.52-3.07-3.39-5.14-6.43-4.63h0Z"/>
    <path class="st0" d="M-1563.36,167.07c5-.78,9.7,2.73,10.49,7.83.79,5.1-2.63,9.86-7.63,10.63h0c-5,.78-9.7-2.73-10.49-7.83h0c-.79-5.1,2.63-9.86,7.63-10.63h0ZM-1563.36,172.5c0-1.09-.88-1.96-1.96-1.96h0c-1.09,0-1.96.88-1.96,1.96h0c0,1.09.88,1.96,1.96,1.96h0c1.09,0,1.96-.88,1.96-1.96h0Z"/>
    <path class="st0" d="M-1533.19,189.05c2.5,5.71-.16,12.4-5.96,14.94-5.79,2.54-12.52-.02-15.03-5.73-2.5-5.71.16-12.4,5.96-14.94,5.79-2.54,12.52.02,15.03,5.73ZM-1545.59,189.17c0-1.29-1.04-2.33-2.33-2.33h0c-1.29,0-2.33,1.05-2.33,2.33s1.04,2.33,2.33,2.33,2.33-1.05,2.33-2.33h0Z"/>
  </g>
  <text>
    <textPath startOffset="6799.61%" xlink:href="#path"><tspan class="st2"><tspan x="0" y="0">Chamok Fish Feeds</tspan></tspan>
    </textPath></text>
  <g>
    <rect class="st5" x="-793.14" y="11.63" width="283.46" height="283.46"/>
    <g>
      <path class="st0" d="M-680.16,103.98c-.06.02-.13-.01-.15-.07-.01-.04,0-.09.03-.12,4.17-4.22,8.89-7.74,14.16-10.55,18.55-9.89,38.96-4.39,54.21,8.64,5.45,4.66,10.31,9.71,14.58,15.16,1.47,1.87,2.81,3.77,4.04,5.69.03.05.02.12-.03.15-.02.01-.05.02-.07.02-.13-.02-.24-.07-.33-.14-2.84-2.19-5.79-4.33-8.86-6.43-3.05-2.08-6.19-3.93-9.41-5.56-15.25-7.66-31.99-11.78-48.91-10.48-3,.23-6.74.72-11.21,1.47-2.6.44-6.18,1.59-8.04,2.22h0Z"/>
      <path class="st0" d="M-678.81,121.02c.09-.5.07-.91-.08-1.24-1.01-2.16-2.31-4.47-3.92-6.95,5.29-1.22,9.73-2.06,13.32-2.51,19.17-2.37,37.43.38,54.77,8.27,11.15,5.07,20.93,11.81,29.33,20.22,1.13,1.13,2.17,2.26,3.11,3.38.1.13.29.15.42.05.01-.01.03-.03.04-.04,5.28-6.21,10.97-12,17.07-17.37,3.78-3.33,7.08-5.87,9.89-7.61,3.29-2.05,6.62-3.74,10.01-5.08.19-.07.4.02.47.21.02.06.03.12.02.18-.72,6.36-2.38,12.54-5.03,18.69-3.56,8.26-8.06,16.08-13.51,23.45-.16.21-.16.51,0,.72,5.71,7.8,10.36,16.15,13.95,25.01,2.34,5.77,3.96,11.76,4.85,17.96.03.23-.13.44-.35.47-.04,0-.08,0-.12,0-.38-.06-.91-.22-1.58-.47-5.1-1.91-9.91-4.72-14.45-8.41-7.54-6.14-14.56-13.02-21.03-20.63-.12-.14-.32-.15-.46-.04-.02.02-.04.04-.06.06-.47.64-.91,1.18-1.32,1.61-5.86,6.1-12.24,11.34-19.15,15.74-20.49,13.03-42.98,18.19-67.48,15.47-.26-.03-.44-.26-.41-.52,0-.07.03-.14.07-.2,7.63-11.5,11.44-23.88,11.42-37.13,0-7.03-1.05-13.61-3.13-19.75-2.99-8.85-8.62-17.47-16.04-23.5-.15-.12-.35-.14-.61-.04h0Z"/>
      <path class="st3" d="M-682.82,112.83c1.61,2.48,2.92,4.79,3.92,6.95.15.32.18.74.08,1.24,3.88,6.06,6.58,12.47,8.11,19.22,1.31,5.78,1.92,11.78,1.84,17.99-.19,14.7-5.1,29.13-13.81,40.9-.13.17-.35.25-.56.2-6.65-1.74-13.18-4.23-19.59-7.46-15.42-7.77-28.1-20.41-36.59-35.37-.17-.29-.15-.66.03-.94,1.96-3.04,3.83-5.83,5.62-8.37,7.72-11,18.52-20.11,30.57-26.43.62-.32,3.12-1.52,7.5-3.59,2.11-.99,6.41-2.44,12.88-4.33h0ZM-700.26,135.7c-3.83.65-6.4,4.32-5.74,8.2s4.29,6.5,8.12,5.85q2.55-.43,0,0c3.83-.65,6.4-4.32,5.74-8.2-.66-3.88-4.29-6.5-8.12-5.85h0Z"/>
      <path class="st0" d="M-748.92,170.68c6.32-.98,12.26,3.45,13.25,9.89,1,6.44-3.32,12.46-9.64,13.44h0c-6.32.98-12.26-3.45-13.25-9.89h0c-1-6.44,3.32-12.46,9.64-13.44h0ZM-748.92,177.54c0-1.37-1.11-2.48-2.48-2.48h0c-1.37,0-2.48,1.11-2.48,2.48h0c0,1.37,1.11,2.48,2.48,2.48h0c1.37,0,2.48-1.11,2.48-2.48h0Z"/>
      <path class="st0" d="M-710.8,198.45c3.16,7.21-.21,15.66-7.52,18.87-7.32,3.21-15.82-.03-18.99-7.24-3.16-7.21.21-15.66,7.52-18.87,7.32-3.21,15.82.03,18.99,7.24ZM-726.47,198.6c0-1.63-1.32-2.95-2.95-2.95h0c-1.63,0-2.95,1.32-2.95,2.95s1.32,2.95,2.95,2.95,2.95-1.32,2.95-2.95h0Z"/>
    </g>
  </g>
  <rect class="st5" x="-396.09" y="11.63" width="283.46" height="283.46"/>
  <g>
    <path class="st0" d="M-283.11,84.88c-.06.02-.13-.01-.15-.07-.01-.04,0-.09.03-.12,4.17-4.22,8.89-7.74,14.16-10.55,18.55-9.89,38.96-4.39,54.21,8.64,5.45,4.66,10.31,9.71,14.58,15.16,1.47,1.87,2.81,3.77,4.04,5.69.03.05.02.12-.03.15-.02.01-.05.02-.07.02-.13-.02-.24-.07-.33-.14-2.84-2.19-5.79-4.33-8.86-6.43-3.05-2.08-6.19-3.93-9.41-5.56-15.25-7.66-31.99-11.78-48.91-10.48-3,.23-6.74.72-11.21,1.47-2.6.44-6.18,1.59-8.04,2.22h0Z"/>
    <path class="st0" d="M-281.76,101.91c.09-.5.07-.91-.08-1.24-1.01-2.16-2.31-4.47-3.92-6.95,5.29-1.22,9.73-2.06,13.32-2.51,19.17-2.37,37.43.38,54.77,8.27,11.15,5.07,20.93,11.81,29.33,20.22,1.13,1.13,2.17,2.26,3.11,3.38.1.13.29.15.42.05.01-.01.03-.03.04-.04,5.28-6.21,10.97-12,17.07-17.37,3.78-3.33,7.08-5.87,9.89-7.61,3.29-2.05,6.62-3.74,10.01-5.08.19-.07.4.02.47.21.02.06.03.12.02.18-.72,6.36-2.38,12.54-5.03,18.69-3.56,8.26-8.06,16.08-13.51,23.45-.16.21-.16.51,0,.72,5.71,7.8,10.36,16.15,13.95,25.01,2.34,5.77,3.96,11.76,4.85,17.96.03.23-.13.44-.35.47-.04,0-.08,0-.12,0-.38-.06-.91-.22-1.58-.47-5.1-1.91-9.91-4.72-14.45-8.41-7.54-6.14-14.56-13.02-21.03-20.63-.12-.14-.32-.15-.46-.04-.02.02-.04.04-.06.06-.47.64-.91,1.18-1.32,1.61-5.86,6.1-12.24,11.34-19.15,15.74-20.49,13.03-42.98,18.19-67.48,15.47-.26-.03-.44-.26-.41-.52,0-.07.03-.14.07-.2,7.63-11.5,11.44-23.88,11.42-37.13,0-7.03-1.05-13.61-3.13-19.75-2.99-8.85-8.62-17.47-16.04-23.5-.15-.12-.35-.14-.61-.04h0Z"/>
    <path class="st3" d="M-285.77,93.73c1.61,2.48,2.92,4.79,3.92,6.95.15.32.18.74.08,1.24,3.88,6.06,6.58,12.47,8.11,19.22,1.31,5.78,1.92,11.78,1.84,17.99-.19,14.7-5.1,29.13-13.81,40.9-.13.17-.35.25-.56.2-6.65-1.74-13.18-4.23-19.59-7.46-15.42-7.77-28.1-20.41-36.59-35.37-.17-.29-.15-.66.03-.94,1.96-3.04,3.83-5.83,5.62-8.37,7.72-11,18.52-20.11,30.57-26.43.62-.32,3.12-1.52,7.5-3.59,2.11-.99,6.41-2.44,12.88-4.33h0ZM-303.22,116.59c-3.83.65-6.4,4.32-5.74,8.2s4.29,6.5,8.12,5.85q2.55-.43,0,0c3.83-.65,6.4-4.32,5.74-8.2-.66-3.88-4.29-6.5-8.12-5.85h0Z"/>
    <path class="st0" d="M-351.87,151.57c6.32-.98,12.26,3.45,13.25,9.89,1,6.44-3.32,12.46-9.64,13.44h0c-6.32.98-12.26-3.45-13.25-9.89h0c-1-6.44,3.32-12.46,9.64-13.44h0ZM-351.87,158.44c0-1.37-1.11-2.48-2.48-2.48h0c-1.37,0-2.48,1.11-2.48,2.48h0c0,1.37,1.11,2.48,2.48,2.48h0c1.37,0,2.48-1.11,2.48-2.48h0Z"/>
    <path class="st0" d="M-313.75,179.34c3.16,7.21-.21,15.66-7.52,18.87-7.32,3.21-15.82-.03-18.99-7.24-3.16-7.21.21-15.66,7.52-18.87,7.32-3.21,15.82.03,18.99,7.24ZM-329.42,179.49c0-1.63-1.32-2.95-2.95-2.95h0c-1.63,0-2.95,1.32-2.95,2.95s1.32,2.95,2.95,2.95,2.95-1.32,2.95-2.95h0Z"/>
  </g>
  <g>
    <path class="st0" d="M27.06,5.45s-.04,0-.05-.03c0-.01,0-.03,0-.04,1.44-1.45,3.06-2.67,4.88-3.63,6.39-3.41,13.42-1.51,18.67,2.98,1.88,1.61,3.55,3.35,5.02,5.22.51.64.97,1.3,1.39,1.96.01.02,0,.04-.01.05,0,0-.02,0-.03,0-.04,0-.08-.02-.11-.05-.98-.75-1.99-1.49-3.05-2.22-1.05-.72-2.13-1.35-3.24-1.91-5.25-2.64-11.02-4.06-16.85-3.61-1.03.08-2.32.25-3.86.51-.9.15-2.13.55-2.77.76h0Z"/>
    <path class="st0" d="M27.52,11.31c.03-.17.02-.31-.03-.43-.35-.74-.8-1.54-1.35-2.39,1.82-.42,3.35-.71,4.59-.86,6.6-.82,12.89.13,18.86,2.85,3.84,1.75,7.21,4.07,10.1,6.97.39.39.75.78,1.07,1.16.04.04.1.05.14.02,0,0,0,0,.01-.01,1.82-2.14,3.78-4.13,5.88-5.98,1.3-1.15,2.44-2.02,3.4-2.62,1.13-.71,2.28-1.29,3.45-1.75.06-.03.14,0,.16.07,0,.02,0,.04,0,.06-.25,2.19-.82,4.32-1.73,6.44-1.23,2.85-2.78,5.54-4.65,8.08-.05.07-.05.18,0,.25,1.97,2.69,3.57,5.56,4.81,8.62.81,1.99,1.36,4.05,1.67,6.19.01.08-.04.15-.12.16-.01,0-.03,0-.04,0-.13-.02-.31-.08-.54-.16-1.76-.66-3.41-1.62-4.98-2.9-2.6-2.12-5.01-4.48-7.25-7.11-.04-.05-.11-.05-.16-.01,0,0-.01.01-.02.02-.16.22-.31.41-.46.56-2.02,2.1-4.22,3.91-6.59,5.42-7.06,4.49-14.81,6.27-23.24,5.33-.09,0-.15-.09-.14-.18,0-.02.01-.05.03-.07,2.63-3.96,3.94-8.23,3.93-12.79,0-2.42-.36-4.69-1.08-6.8-1.03-3.05-2.97-6.02-5.53-8.09-.05-.04-.12-.05-.21-.01h0Z"/>
    <path class="st3" d="M26.14,8.49c.55.85,1,1.65,1.35,2.39.05.11.06.25.03.43,1.34,2.09,2.27,4.29,2.79,6.62.45,1.99.66,4.06.63,6.2-.06,5.06-1.76,10.03-4.76,14.09-.04.06-.12.09-.19.07-2.29-.6-4.54-1.46-6.75-2.57-5.31-2.68-9.68-7.03-12.6-12.18-.06-.1-.05-.23,0-.32.67-1.05,1.32-2.01,1.93-2.88,2.66-3.79,6.38-6.93,10.53-9.1.21-.11,1.07-.52,2.58-1.24.73-.34,2.21-.84,4.44-1.49h0ZM20.13,16.37c-1.32.22-2.2,1.49-1.98,2.82s1.48,2.24,2.8,2.02q.88-.15,0,0c1.32-.22,2.2-1.49,1.98-2.82s-1.48-2.24-2.8-2.02h0Z"/>
    <path class="st0" d="M3.37,28.42c2.18-.34,4.22,1.19,4.57,3.41.34,2.22-1.14,4.29-3.32,4.63h0c-2.18.34-4.22-1.19-4.57-3.41H.05c-.34-2.22,1.14-4.29,3.32-4.63h0ZM3.37,30.78c0-.47-.38-.85-.85-.85h0c-.47,0-.85.38-.85.85h0c0,.47.38.85.85.85h0c.47,0,.85-.38.85-.85h0Z"/>
    <path class="st0" d="M16.5,37.98c1.09,2.48-.07,5.39-2.59,6.5-2.52,1.11-5.45,0-6.54-2.49-1.09-2.48.07-5.39,2.59-6.5,2.52-1.11,5.45,0,6.54,2.49ZM11.1,38.04c0-.56-.45-1.02-1.02-1.02h0c-.56,0-1.02.45-1.02,1.02s.45,1.02,1.02,1.02,1.02-.45,1.02-1.02h0Z"/>
  </g>
  <path class="st0" d="M731.86-13.94c-.13.04-.27-.03-.32-.16-.03-.09,0-.19.06-.25,8.94-9.05,19.06-16.59,30.36-22.62,39.76-21.2,83.52-9.42,116.2,18.53,11.69,9.99,22.1,20.82,31.25,32.49,3.15,4.01,6.03,8.08,8.65,12.2.07.11.04.26-.07.33-.05.03-.1.04-.16.04-.27-.04-.51-.14-.7-.29-6.08-4.69-12.41-9.28-19-13.79-6.53-4.46-13.26-8.43-20.18-11.91-32.69-16.43-68.58-25.26-104.84-22.47-6.44.49-14.45,1.54-24.02,3.15-5.58.94-13.25,3.41-17.23,4.75h0Z"/>
  <path class="st0" d="M734.74,22.58c.2-1.07.14-1.96-.18-2.65-2.16-4.63-4.96-9.59-8.41-14.9,11.34-2.62,20.86-4.41,28.55-5.37,41.1-5.09,80.23.82,117.4,17.73,23.9,10.87,44.86,25.32,62.88,43.35,2.43,2.43,4.65,4.85,6.66,7.25.22.28.62.32.9.1.03-.03.06-.06.09-.09,11.31-13.31,23.51-25.73,36.59-37.24,8.11-7.14,15.18-12.58,21.19-16.32,7.05-4.39,14.2-8.02,21.46-10.89.4-.16.85.04,1.01.44.05.12.06.25.05.38-1.55,13.64-5.11,26.89-10.78,40.06-7.63,17.71-17.28,34.47-28.96,50.27-.34.46-.34,1.09,0,1.55,12.24,16.73,22.21,34.61,29.91,53.62,5.02,12.37,8.48,25.21,10.39,38.5.07.49-.27.94-.75,1-.09.01-.17.01-.26,0-.82-.13-1.95-.47-3.39-1.01-10.93-4.1-21.25-10.11-30.98-18.03-16.17-13.17-31.2-27.91-45.09-44.23-.25-.3-.69-.33-.99-.08-.04.04-.08.08-.12.13-1,1.37-1.95,2.53-2.84,3.46-12.56,13.07-26.24,24.31-41.04,33.73-43.92,27.94-92.14,39-144.65,33.17-.55-.06-.94-.56-.88-1.11.02-.15.07-.3.16-.43,16.36-24.65,24.52-51.19,24.48-79.6-.02-15.07-2.25-29.18-6.7-42.34-6.42-18.97-18.48-37.44-34.39-50.37-.33-.26-.76-.29-1.31-.08h0Z"/>
  <path class="st3" d="M726.15,5.03c3.45,5.31,6.25,10.27,8.41,14.9.32.69.38,1.58.18,2.65,8.31,12.99,14.11,26.72,17.38,41.21,2.8,12.4,4.12,25.26,3.95,38.57-.4,31.51-10.94,62.44-29.6,87.67-.28.37-.75.53-1.21.42-14.25-3.73-28.25-9.07-42-16-33.05-16.65-60.23-43.74-78.44-75.82-.36-.63-.33-1.41.06-2.02,4.2-6.51,8.21-12.5,12.04-17.95,16.55-23.57,39.7-43.1,65.53-56.65,1.33-.69,6.69-3.26,16.08-7.69,4.52-2.13,13.73-5.23,27.62-9.29h0ZM688.76,54.05c-8.2,1.39-13.71,9.25-12.3,17.57s9.19,13.93,17.4,12.54q5.47-.93,0,0c8.2-1.39,13.71-9.25,12.3-17.57-1.41-8.32-9.19-13.93-17.4-12.54h0Z"/>
  <path class="st0" d="M584.46,129.03c13.55-2.1,26.27,7.4,28.41,21.2,2.14,13.81-7.12,26.7-20.67,28.8h0c-13.55,2.1-26.27-7.4-28.41-21.2h0c-2.14-13.81,7.12-26.7,20.67-28.8h0ZM584.47,143.74c0-2.94-2.38-5.32-5.32-5.32h0c-2.94,0-5.32,2.38-5.32,5.32h0c0,2.94,2.38,5.32,5.32,5.32h0c2.94,0,5.32-2.38,5.32-5.32h0Z"/>
  <path class="st0" d="M666.17,188.56c6.78,15.45-.44,33.57-16.13,40.45-15.69,6.89-33.91-.06-40.7-15.51-6.78-15.45.44-33.57,16.13-40.45,15.69-6.89,33.91.06,40.7,15.51ZM632.59,188.88c0-3.49-2.83-6.32-6.32-6.32h0c-3.49,0-6.32,2.83-6.32,6.32s2.83,6.32,6.32,6.32,6.32-2.83,6.32-6.32h0Z"/>
  <text class="st1" transform="translate(1278.38 -190.27)"><tspan x="0" y="0">Arimo Bold</tspan></text>
  <rect class="st5" x="-45.18" y="82.94" width="459.26" height="98.56"/>
  <g>
    <path class="st3" d="M113.85,29.66c2.48,0,4.19-1.24,5.14-3.71l3.56,1.34c-.77,1.88-1.89,3.29-3.38,4.21-1.48.92-3.26,1.38-5.33,1.38s-3.87-.4-5.34-1.2c-1.47-.8-2.59-1.96-3.36-3.47-.77-1.52-1.16-3.34-1.16-5.46s.37-3.95,1.11-5.43c.74-1.48,1.83-2.6,3.27-3.38s3.21-1.16,5.29-1.16c2.29,0,4.16.46,5.6,1.38,1.44.92,2.45,2.27,3.04,4.05l-3.6.98c-.3-.98-.9-1.76-1.79-2.34-.89-.58-1.94-.87-3.15-.87-1.85,0-3.25.57-4.21,1.72-.96,1.15-1.43,2.82-1.43,5.03,0,1.5.22,2.76.66,3.78.44,1.03,1.09,1.8,1.94,2.33.85.53,1.9.8,3.14.8Z"/>
    <path class="st3" d="M129.16,20.6c.53-1.15,1.19-1.98,1.98-2.49s1.74-.78,2.84-.78c1.59,0,2.81.49,3.66,1.47.85.98,1.28,2.41,1.28,4.3v9.51h-3.88v-8.4c0-1.32-.22-2.31-.67-2.97-.44-.66-1.11-.98-2.01-.98-.94,0-1.7.4-2.28,1.21-.58.81-.87,1.85-.87,3.11v8.02h-3.9V12.03h3.9v5.61c0,.33,0,.67-.01,1,0,.33-.02.66-.03.98-.01.32-.04.65-.06.97h.06Z"/>
    <path class="st3" d="M146.12,32.88c-1.45,0-2.58-.4-3.4-1.19-.81-.79-1.22-1.9-1.22-3.33,0-1.55.51-2.73,1.52-3.53,1.01-.8,2.48-1.22,4.4-1.26l3.23-.06v-.76c0-.98-.17-1.71-.51-2.18-.34-.48-.9-.71-1.68-.71-.72,0-1.25.16-1.59.49s-.55.87-.63,1.63l-4.06-.19c.51-2.97,2.66-4.45,6.44-4.45,1.89,0,3.35.47,4.38,1.4,1.03.93,1.54,2.26,1.54,3.98v5.46c0,.84.09,1.42.28,1.74s.51.48.95.48c.29,0,.58-.03.86-.08v2.11c-.48.12-.89.21-1.23.27s-.76.09-1.26.09c-.98,0-1.7-.24-2.17-.72-.47-.48-.75-1.19-.84-2.12h-.08c-.54.98-1.23,1.72-2.05,2.21-.82.49-1.78.74-2.88.74ZM150.65,25.66l-2,.03c-.92.05-1.56.14-1.93.29-.38.17-.67.42-.87.75-.2.33-.3.78-.3,1.33,0,.71.16,1.24.49,1.59.33.35.76.52,1.31.52.61,0,1.17-.17,1.68-.5.5-.33.89-.79,1.18-1.38.29-.59.43-1.21.43-1.86v-.76Z"/>
    <path class="st3" d="M162.34,24.56v8.04h-3.9v-11.64c0-.8-.01-1.46-.03-1.98s-.05-.97-.08-1.38h3.71c.02.11.04.37.07.78.03.41.05.83.08,1.26.02.43.03.74.03.94h.06c.48-1.15,1.08-1.98,1.79-2.5.72-.52,1.57-.78,2.57-.78,1.15,0,2.07.27,2.77.82.7.55,1.17,1.36,1.41,2.45h.08c.51-1.16,1.12-2,1.83-2.51.71-.51,1.62-.76,2.72-.76,1.46,0,2.57.5,3.34,1.49.77.99,1.15,2.42,1.15,4.28v9.52h-3.87v-8.41c0-1.32-.19-2.31-.57-2.97-.38-.66-.95-.98-1.7-.98s-1.39.37-1.9,1.1c-.51.73-.76,1.75-.76,3.04v8.22h-3.87v-8.41c0-1.32-.19-2.31-.57-2.97-.38-.66-.95-.98-1.71-.98s-1.42.4-1.92,1.21c-.49.8-.74,1.84-.74,3.12Z"/>
    <path class="st3" d="M197.93,25.09c0,2.43-.67,4.34-2.02,5.72s-3.22,2.07-5.6,2.07-4.17-.69-5.5-2.08c-1.33-1.39-2-3.29-2-5.71s.67-4.31,2-5.69c1.33-1.38,3.19-2.07,5.59-2.07s4.32.67,5.61,2,1.93,3.25,1.93,5.76ZM193.85,25.09c0-1.78-.29-3.08-.87-3.88-.58-.8-1.43-1.21-2.54-1.21-1.18,0-2.07.42-2.66,1.27-.59.85-.89,2.12-.89,3.82s.29,2.94.87,3.82c.58.87,1.41,1.31,2.5,1.31,1.2,0,2.1-.43,2.7-1.28.6-.85.89-2.14.89-3.85Z"/>
    <path class="st3" d="M204.91,26.97v5.63h-3.9V12.03h3.9v11.78l5.35-6.21h4.19l-5.27,5.85,5.67,9.15h-4.25l-4-6.79-1.68,1.16Z"/>
    <path class="st3" d="M228.7,25.44v7.17h-4.09V13.07h14.4v3.16h-10.31v6.04h9.99v3.16h-9.99Z"/>
    <path class="st3" d="M245.92,12.03v2.87h-3.9v-2.87h3.9ZM245.92,17.61v15h-3.9v-15h3.9Z"/>
    <path class="st3" d="M262.56,28.22c0,1.45-.59,2.59-1.78,3.42-1.19.83-2.83,1.24-4.93,1.24s-3.64-.33-4.73-.98-1.82-1.67-2.18-3.04l3.42-.51c.19.71.53,1.21,1,1.51s1.31.44,2.49.44c1.09,0,1.88-.14,2.38-.42.5-.28.75-.71.75-1.3,0-.48-.2-.86-.6-1.14-.4-.28-1.08-.52-2.04-.71-.73-.15-1.38-.29-1.96-.43-.58-.14-1.07-.27-1.48-.41s-.75-.26-1-.38c-.77-.38-1.35-.86-1.75-1.46-.4-.59-.6-1.32-.6-2.19,0-1.43.55-2.55,1.66-3.35,1.1-.8,2.67-1.2,4.69-1.2,1.78,0,3.22.35,4.3,1.04,1.09.69,1.76,1.7,2.03,3.01l-3.45.36c-.11-.61-.38-1.06-.82-1.37-.43-.3-1.12-.45-2.07-.45s-1.62.12-2.08.35c-.46.24-.69.63-.69,1.18,0,.43.18.78.53,1.03.36.25.95.46,1.79.63,1.17.24,2.21.49,3.12.74.91.25,1.64.56,2.2.91.54.35.98.8,1.31,1.35s.49,1.25.49,2.11Z"/>
    <path class="st3" d="M269.54,20.6c.53-1.15,1.19-1.98,1.98-2.49s1.74-.78,2.84-.78c1.59,0,2.81.49,3.66,1.47.85.98,1.28,2.41,1.28,4.3v9.51h-3.88v-8.4c0-1.32-.22-2.31-.67-2.97-.44-.66-1.11-.98-2.01-.98-.94,0-1.7.4-2.28,1.21-.58.81-.87,1.85-.87,3.11v8.02h-3.9V12.03h3.9v5.61c0,.33,0,.67-.01,1,0,.33-.02.66-.03.98-.01.32-.04.65-.06.97h.06Z"/>
    <path class="st3" d="M294.93,25.44v7.17h-4.09V13.07h14.4v3.16h-10.31v6.04h9.99v3.16h-9.99Z"/>
    <path class="st3" d="M311.48,25.85c0,1.46.27,2.56.81,3.31.54.74,1.31,1.12,2.31,1.12.68,0,1.25-.15,1.68-.45.44-.3.75-.75.92-1.34l3.67.32c-1.06,2.72-3.22,4.07-6.47,4.07-2.25,0-3.99-.67-5.2-2-1.21-1.33-1.82-3.28-1.82-5.84s.62-4.38,1.84-5.71c1.23-1.33,2.97-2,5.22-2s3.8.71,4.93,2.14c1.14,1.43,1.71,3.52,1.71,6.27v.11h-9.62ZM317.33,23.41c-.07-1.21-.37-2.12-.87-2.72-.51-.6-1.19-.91-2.05-.91-.92,0-1.62.32-2.11.96-.49.64-.75,1.53-.78,2.67h5.82Z"/>
    <path class="st3" d="M327.27,25.85c0,1.46.27,2.56.81,3.31.54.74,1.31,1.12,2.31,1.12.68,0,1.25-.15,1.68-.45.44-.3.75-.75.92-1.34l3.67.32c-1.06,2.72-3.22,4.07-6.47,4.07-2.25,0-3.99-.67-5.2-2-1.21-1.33-1.82-3.28-1.82-5.84s.62-4.38,1.84-5.71c1.23-1.33,2.97-2,5.22-2s3.8.71,4.93,2.14c1.14,1.43,1.71,3.52,1.71,6.27v.11h-9.62ZM333.11,23.41c-.07-1.21-.37-2.12-.87-2.72-.51-.6-1.19-.91-2.05-.91-.92,0-1.62.32-2.11.96-.49.64-.75,1.53-.78,2.67h5.82Z"/>
    <path class="st3" d="M349.55,32.6c-.02-.09-.05-.29-.08-.58s-.07-.62-.09-.97c-.02-.35-.04-.65-.04-.89h-.05c-.43.91-1.04,1.58-1.83,2.04s-1.78.68-2.97.68c-1.75,0-3.1-.68-4.05-2.04-.95-1.36-1.43-3.27-1.43-5.72s.5-4.4,1.5-5.76,2.42-2.03,4.26-2.03c1.06,0,1.98.22,2.75.67.77.44,1.37,1.1,1.78,1.98h.03l-.03-2.47v-5.47h3.89v17.3c0,.46,0,.97.03,1.51.02.55.05,1.13.08,1.76h-3.77ZM343.08,25.12c0,1.7.26,2.98.77,3.83.51.85,1.28,1.28,2.29,1.28s1.82-.45,2.38-1.35.85-2.18.85-3.85-.27-2.86-.81-3.74c-.54-.87-1.34-1.31-2.39-1.31s-1.82.42-2.33,1.27c-.51.85-.76,2.14-.76,3.87Z"/>
    <path class="st3" d="M369.81,28.22c0,1.45-.59,2.59-1.78,3.42-1.19.83-2.83,1.24-4.93,1.24s-3.64-.33-4.73-.98-1.82-1.67-2.18-3.04l3.42-.51c.19.71.53,1.21,1,1.51s1.31.44,2.49.44c1.09,0,1.88-.14,2.38-.42.5-.28.75-.71.75-1.3,0-.48-.2-.86-.6-1.14-.4-.28-1.08-.52-2.04-.71-.73-.15-1.38-.29-1.96-.43-.58-.14-1.07-.27-1.48-.41s-.75-.26-1-.38c-.77-.38-1.35-.86-1.75-1.46-.4-.59-.6-1.32-.6-2.19,0-1.43.55-2.55,1.66-3.35,1.1-.8,2.67-1.2,4.69-1.2,1.78,0,3.22.35,4.3,1.04,1.09.69,1.76,1.7,2.03,3.01l-3.45.36c-.11-.61-.38-1.06-.82-1.37-.43-.3-1.12-.45-2.07-.45s-1.62.12-2.08.35c-.46.24-.69.63-.69,1.18,0,.43.18.78.53,1.03.36.25.95.46,1.79.63,1.17.24,2.21.49,3.12.74.91.25,1.64.56,2.2.91.54.35.98.8,1.31,1.35s.49,1.25.49,2.11Z"/>
  </g>
  <text class="st1" transform="translate(1275.21 -147.3)"><tspan x="0" y="0">Chamok Fish Feeds</tspan></text>
  <g>
    <path class="st3" d="M578.93,308.23c4.5,0,7.62-2.25,9.35-6.75l6.48,2.44c-1.39,3.43-3.44,5.98-6.14,7.65s-5.93,2.51-9.69,2.51-7.03-.73-9.7-2.18c-2.67-1.45-4.71-3.56-6.11-6.31-1.4-2.76-2.1-6.07-2.1-9.93s.67-7.19,2.02-9.88c1.34-2.69,3.33-4.73,5.95-6.14s5.83-2.1,9.63-2.1c4.17,0,7.56.84,10.18,2.51,2.62,1.67,4.46,4.13,5.52,7.37l-6.55,1.79c-.55-1.78-1.64-3.2-3.26-4.25-1.62-1.05-3.53-1.58-5.73-1.58-3.36,0-5.91,1.04-7.65,3.12-1.74,2.08-2.61,5.13-2.61,9.15,0,2.72.4,5.02,1.2,6.88.8,1.87,1.97,3.28,3.53,4.25,1.55.97,3.46,1.45,5.71,1.45Z"/>
    <path class="st3" d="M606.75,291.75c.96-2.08,2.16-3.6,3.6-4.54,1.45-.94,3.17-1.41,5.17-1.41,2.89,0,5.11.89,6.65,2.67,1.54,1.78,2.32,4.39,2.32,7.81v17.29h-7.06v-15.27c0-2.4-.4-4.2-1.21-5.39-.81-1.19-2.02-1.79-3.65-1.79-1.71,0-3.1.74-4.15,2.21s-1.58,3.36-1.58,5.66v14.59h-7.08v-37.4h7.08v10.21c0,.6,0,1.21-.03,1.81-.02.6-.04,1.2-.06,1.79-.03.59-.06,1.18-.11,1.76h.1Z"/>
    <path class="st3" d="M637.6,314.08c-2.64,0-4.7-.72-6.17-2.15s-2.22-3.46-2.22-6.06c0-2.82.92-4.96,2.76-6.43,1.84-1.46,4.51-2.23,8-2.29l5.87-.1v-1.39c0-1.78-.31-3.1-.93-3.97-.62-.87-1.64-1.3-3.05-1.3-1.31,0-2.27.3-2.89.89-.61.6-1,1.58-1.15,2.96l-7.38-.35c.92-5.39,4.83-8.09,11.72-8.09,3.44,0,6.1.85,7.96,2.55,1.87,1.7,2.8,4.11,2.8,7.23v9.93c0,1.53.17,2.58.52,3.16.34.58.92.87,1.73.87.54,0,1.06-.05,1.56-.15v3.83c-.87.22-1.62.38-2.24.49-.62.11-1.39.16-2.29.16-1.78,0-3.1-.44-3.94-1.31-.85-.87-1.36-2.16-1.52-3.86h-.15c-.99,1.78-2.23,3.12-3.73,4.02-1.5.9-3.24,1.35-5.24,1.35ZM645.84,300.95l-3.63.05c-1.66.08-2.83.26-3.5.53-.69.3-1.21.76-1.58,1.36-.36.6-.54,1.41-.54,2.42,0,1.29.3,2.26.89,2.89.6.63,1.39.94,2.38.94,1.11,0,2.12-.3,3.05-.91.91-.6,1.62-1.44,2.14-2.51.52-1.07.78-2.2.78-3.39v-1.39Z"/>
    <path class="st3" d="M667.09,298.96v14.62h-7.08v-21.17c0-1.46-.02-2.66-.06-3.59s-.09-1.77-.14-2.51h6.75c.03.2.08.68.13,1.42.05.75.1,1.51.14,2.29s.06,1.35.06,1.7h.1c.87-2.08,1.96-3.6,3.26-4.54,1.3-.94,2.86-1.41,4.67-1.41,2.08,0,3.76.5,5.03,1.49s2.12,2.48,2.56,4.46h.15c.92-2.12,2.03-3.64,3.33-4.56,1.29-.92,2.94-1.39,4.94-1.39,2.65,0,4.68.9,6.07,2.71,1.39,1.81,2.09,4.4,2.09,7.77v17.31h-7.03v-15.3c0-2.4-.34-4.2-1.03-5.39-.69-1.19-1.72-1.79-3.1-1.79s-2.53.67-3.45,2c-.92,1.34-1.39,3.18-1.39,5.53v14.94h-7.03v-15.3c0-2.4-.34-4.2-1.03-5.39-.69-1.19-1.72-1.79-3.1-1.79s-2.59.73-3.49,2.19c-.9,1.46-1.35,3.35-1.35,5.67Z"/>
    <path class="st3" d="M731.81,299.92c0,4.42-1.23,7.88-3.68,10.4s-5.85,3.77-10.18,3.77-7.59-1.26-10-3.78c-2.42-2.52-3.63-5.98-3.63-10.38s1.21-7.83,3.63-10.35c2.42-2.51,5.8-3.77,10.16-3.77s7.85,1.21,10.19,3.64c2.34,2.43,3.52,5.92,3.52,10.47ZM724.4,299.92c0-3.24-.53-5.6-1.59-7.06-1.06-1.46-2.6-2.19-4.61-2.19-2.15,0-3.76.77-4.84,2.31s-1.61,3.85-1.61,6.94.52,5.35,1.57,6.94,2.57,2.38,4.55,2.38c2.18,0,3.82-.78,4.9-2.33,1.08-1.55,1.62-3.88,1.62-6.99Z"/>
    <path class="st3" d="M744.51,303.35v10.23h-7.08v-37.4h7.08v21.42l9.73-11.29h7.61l-9.58,10.64,10.31,16.63h-7.74l-7.28-12.35-3.05,2.12Z"/>
    <path class="st3" d="M787.75,300.55v13.03h-7.43v-35.51h26.18v5.75h-18.75v10.99h18.17v5.75h-18.17Z"/>
    <path class="st3" d="M819.08,276.18v5.22h-7.08v-5.22h7.08ZM819.08,286.31v27.27h-7.08v-27.27h7.08Z"/>
    <path class="st3" d="M849.32,305.61c0,2.64-1.08,4.71-3.24,6.21-2.16,1.5-5.15,2.26-8.96,2.26s-6.62-.59-8.61-1.78c-1.99-1.18-3.31-3.03-3.97-5.53l6.22-.93c.35,1.29.96,2.21,1.83,2.75s2.37.81,4.52.81c1.98,0,3.43-.25,4.33-.76s1.36-1.29,1.36-2.37c0-.87-.37-1.57-1.1-2.08-.73-.51-1.97-.94-3.72-1.3-1.33-.27-2.52-.53-3.57-.78s-1.95-.5-2.7-.74c-.75-.24-1.36-.47-1.83-.69-1.39-.69-2.46-1.57-3.19-2.65-.73-1.08-1.1-2.4-1.1-3.98,0-2.6,1-4.63,3.01-6.09,2.01-1.45,4.85-2.18,8.53-2.18,3.24,0,5.85.63,7.83,1.89,1.97,1.26,3.21,3.08,3.69,5.47l-6.28.65c-.2-1.11-.7-1.94-1.49-2.48-.79-.55-2.04-.82-3.75-.82s-2.94.21-3.78.64c-.84.43-1.26,1.15-1.26,2.15,0,.79.32,1.42.97,1.88.65.46,1.74.84,3.26,1.15,2.13.44,4.03.89,5.68,1.35,1.65.46,2.99,1.01,3.99,1.65.99.64,1.79,1.46,2.38,2.46.6,1,.89,2.28.89,3.84Z"/>
    <path class="st3" d="M862.02,291.75c.96-2.08,2.16-3.6,3.6-4.54,1.45-.94,3.17-1.41,5.17-1.41,2.89,0,5.11.89,6.65,2.67,1.54,1.78,2.32,4.39,2.32,7.81v17.29h-7.06v-15.27c0-2.4-.4-4.2-1.21-5.39-.81-1.19-2.02-1.79-3.65-1.79-1.71,0-3.1.74-4.15,2.21s-1.58,3.36-1.58,5.66v14.59h-7.08v-37.4h7.08v10.21c0,.6,0,1.21-.03,1.81-.02.6-.04,1.2-.06,1.79-.03.59-.06,1.18-.11,1.76h.1Z"/>
    <path class="st3" d="M908.19,300.55v13.03h-7.43v-35.51h26.18v5.75h-18.75v10.99h18.17v5.75h-18.17Z"/>
    <path class="st3" d="M938.28,301.3c0,2.65.49,4.66,1.47,6.01.98,1.35,2.38,2.03,4.2,2.03,1.24,0,2.26-.27,3.06-.82.8-.55,1.36-1.36,1.68-2.43l6.68.58c-1.93,4.94-5.86,7.41-11.77,7.41-4.1,0-7.25-1.21-9.45-3.64-2.2-2.43-3.3-5.97-3.3-10.62s1.12-7.96,3.35-10.38c2.23-2.42,5.4-3.63,9.5-3.63s6.91,1.3,8.97,3.89,3.1,6.4,3.1,11.4v.2h-17.49ZM948.92,296.87c-.13-2.2-.66-3.85-1.59-4.95-.92-1.1-2.17-1.65-3.73-1.65-1.66,0-2.95.58-3.84,1.74s-1.37,2.78-1.42,4.86h10.58Z"/>
    <path class="st3" d="M966.99,301.3c0,2.65.49,4.66,1.47,6.01.98,1.35,2.38,2.03,4.2,2.03,1.24,0,2.26-.27,3.06-.82.8-.55,1.36-1.36,1.68-2.43l6.68.58c-1.93,4.94-5.86,7.41-11.77,7.41-4.1,0-7.25-1.21-9.45-3.64-2.2-2.43-3.3-5.97-3.3-10.62s1.12-7.96,3.35-10.38c2.23-2.42,5.4-3.63,9.5-3.63s6.91,1.3,8.97,3.89,3.1,6.4,3.1,11.4v.2h-17.49ZM977.62,296.87c-.13-2.2-.66-3.85-1.59-4.95-.92-1.1-2.17-1.65-3.73-1.65-1.66,0-2.95.58-3.84,1.74s-1.37,2.78-1.42,4.86h10.58Z"/>
    <path class="st3" d="M1007.51,313.58c-.03-.17-.08-.52-.15-1.06-.07-.54-.12-1.13-.16-1.76-.04-.64-.06-1.18-.06-1.61h-.1c-.77,1.65-1.88,2.88-3.33,3.7-1.45.82-3.24,1.23-5.39,1.23-3.17,0-5.63-1.24-7.36-3.72-1.73-2.48-2.6-5.94-2.6-10.4s.91-8.01,2.73-10.47c1.82-2.46,4.41-3.69,7.75-3.69,1.93,0,3.6.4,5,1.21,1.4.81,2.48,2.01,3.24,3.6h.05l-.05-4.49v-9.95h7.08v31.45c0,.84.02,1.76.05,2.75.03.99.08,2.06.15,3.2h-6.85ZM995.74,299.97c0,3.09.47,5.41,1.4,6.96.93,1.55,2.32,2.32,4.17,2.32s3.31-.82,4.33-2.46,1.54-3.97,1.54-6.99-.49-5.2-1.47-6.79c-.98-1.59-2.43-2.38-4.35-2.38s-3.31.77-4.23,2.31c-.92,1.54-1.39,3.89-1.39,7.04Z"/>
    <path class="st3" d="M1044.36,305.61c0,2.64-1.08,4.71-3.24,6.21-2.16,1.5-5.15,2.26-8.96,2.26s-6.62-.59-8.61-1.78c-1.99-1.18-3.31-3.03-3.97-5.53l6.22-.93c.35,1.29.96,2.21,1.83,2.75s2.37.81,4.52.81c1.98,0,3.43-.25,4.33-.76s1.36-1.29,1.36-2.37c0-.87-.37-1.57-1.1-2.08-.73-.51-1.97-.94-3.72-1.3-1.33-.27-2.52-.53-3.57-.78s-1.95-.5-2.7-.74c-.75-.24-1.36-.47-1.83-.69-1.39-.69-2.46-1.57-3.19-2.65-.73-1.08-1.1-2.4-1.1-3.98,0-2.6,1-4.63,3.01-6.09,2.01-1.45,4.85-2.18,8.53-2.18,3.24,0,5.85.63,7.83,1.89,1.97,1.26,3.21,3.08,3.69,5.47l-6.28.65c-.2-1.11-.7-1.94-1.49-2.48-.79-.55-2.04-.82-3.75-.82s-2.94.21-3.78.64c-.84.43-1.26,1.15-1.26,2.15,0,.79.32,1.42.97,1.88.65.46,1.74.84,3.26,1.15,2.13.44,4.03.89,5.68,1.35,1.65.46,2.99,1.01,3.99,1.65.99.64,1.79,1.46,2.38,2.46.6,1,.89,2.28.89,3.84Z"/>
  </g>
  <g>
    <path class="st3" d="M-1121.33,229.55c1.34,1.78,3.15,2.34,5.45,1.69l.96,3.29c-1.77.47-3.38.42-4.84-.15-1.46-.57-2.75-1.6-3.87-3.08-1.13-1.5-1.8-2.99-2.02-4.48-.22-1.49,0-2.92.68-4.29s1.77-2.63,3.3-3.78c1.54-1.16,3.04-1.87,4.5-2.14s2.86-.09,4.19.53c1.33.62,2.56,1.68,3.69,3.18,1.24,1.65,1.91,3.24,2.03,4.77.12,1.53-.31,2.99-1.28,4.37l-2.65-2.06c.54-.75.78-1.6.71-2.55-.07-.95-.43-1.86-1.08-2.73-1-1.33-2.17-2.03-3.51-2.09-1.34-.07-2.8.49-4.39,1.69-1.07.81-1.86,1.65-2.36,2.52-.5.87-.71,1.75-.63,2.66.08.9.45,1.8,1.12,2.69Z"/>
    <path class="st3" d="M-1106.1,234.89c1.06-.39,2.01-.5,2.85-.33.83.18,1.6.61,2.3,1.31,1.01,1.01,1.47,2.1,1.39,3.26-.08,1.16-.72,2.34-1.92,3.54l-6.04,6.05-2.47-2.46,5.33-5.34c.84-.84,1.33-1.61,1.46-2.31.13-.7-.08-1.33-.65-1.9-.6-.6-1.34-.82-2.22-.68s-1.72.62-2.53,1.43l-5.1,5.1-2.48-2.47,13.06-13.08,2.48,2.47-3.57,3.57c-.21.21-.42.42-.64.63-.22.21-.43.41-.65.6-.21.2-.43.39-.66.58l.04.04Z"/>
    <path class="st3" d="M-1101.8,253.75c-1.03-.8-1.62-1.7-1.76-2.71-.14-1.01.18-2.02.97-3.04.86-1.1,1.86-1.66,3.03-1.67s2.43.5,3.82,1.53l2.32,1.74.42-.54c.54-.7.82-1.31.84-1.83.02-.53-.25-1-.8-1.43-.51-.4-.98-.57-1.4-.53s-.87.32-1.35.81l-2.78-2.38c2-1.83,4.34-1.69,7.03.4,1.34,1.04,2.12,2.18,2.34,3.41.21,1.23-.15,2.45-1.1,3.67l-3.01,3.88c-.46.6-.72,1.06-.76,1.39-.04.33.1.62.41.86.21.16.43.3.66.41l-1.16,1.5c-.41-.18-.75-.34-1.02-.49-.28-.15-.59-.36-.95-.63-.7-.54-1.08-1.11-1.14-1.71-.07-.6.12-1.25.57-1.97l-.06-.05c-.93.39-1.82.54-2.68.44-.86-.1-1.67-.46-2.46-1.06ZM-1094.6,251.13l-1.43-1.08c-.68-.47-1.18-.76-1.53-.86-.36-.09-.7-.07-1.03.05-.33.13-.64.39-.95.78-.39.51-.57.97-.53,1.4.04.43.26.79.64,1.09.43.34.92.53,1.46.57.54.04,1.07-.07,1.6-.33.53-.26.97-.62,1.33-1.09l.42-.54Z"/>
    <path class="st3" d="M-1085.22,256.53l-3.5,6.32-3.06-1.7,5.08-9.15c.35-.63.63-1.15.83-1.57.21-.41.39-.79.54-1.12l2.92,1.62c-.03.1-.13.31-.29.65-.16.34-.32.68-.49,1.02-.17.35-.3.6-.38.75l.04.02c.88-.69,1.71-1.08,2.5-1.18.79-.09,1.58.08,2.36.51.9.5,1.51,1.12,1.82,1.85s.32,1.58.04,2.54l.06.04c.91-.69,1.75-1.08,2.53-1.17.78-.09,1.6.11,2.47.58,1.15.64,1.81,1.51,1.98,2.63.17,1.12-.15,2.4-.96,3.86l-4.15,7.48-3.04-1.69,3.67-6.61c.58-1.04.86-1.9.85-2.58s-.32-1.19-.91-1.52c-.6-.33-1.25-.32-1.97.04-.72.36-1.36,1.04-1.92,2.06l-3.58,6.46-3.04-1.69,3.67-6.61c.58-1.04.86-1.9.85-2.58-.01-.68-.31-1.19-.91-1.52-.62-.34-1.3-.31-2.04.11s-1.39,1.13-1.94,2.13Z"/>
    <path class="st3" d="M-1056.05,270.21c-.74,2.06-1.89,3.46-3.45,4.22-1.56.76-3.35.77-5.37.05-1.98-.71-3.32-1.85-4.02-3.43-.7-1.58-.69-3.39.05-5.44.73-2.04,1.87-3.44,3.42-4.21,1.55-.76,3.33-.78,5.36-.05,2.07.74,3.45,1.88,4.13,3.4.68,1.52.64,3.34-.12,5.46ZM-1059.5,268.98c.54-1.51.69-2.69.44-3.55s-.84-1.45-1.78-1.79c-1-.36-1.88-.27-2.64.26-.76.54-1.39,1.52-1.91,2.96-.51,1.41-.65,2.58-.43,3.49s.79,1.54,1.72,1.87c1.02.37,1.9.28,2.67-.26.77-.54,1.41-1.54,1.93-2.98Z"/>
    <path class="st3" d="M-1050.06,273.39l-1.1,4.94-3.42-.76,4.03-18.04,3.42.76-2.31,10.33,5.91-4.4,3.67.82-5.77,4.1,3.18,9.13-3.73-.83-2.18-6.74-1.7.69Z"/>
    <path class="st3" d="M-1028.21,275.19l-.23,6.44-3.67-.13.63-17.54,12.94.46-.1,2.84-9.26-.33-.2,5.43,8.97.32-.1,2.84-8.97-.32Z"/>
    <path class="st3" d="M-1013.21,263.03l.15,2.57-3.49.2-.15-2.57,3.49-.2ZM-1012.92,268.02l.78,13.46-3.49.2-.78-13.46,3.49-.2Z"/>
    <path class="st3" d="M-997.1,275.64c.19,1.29-.19,2.38-1.14,3.27-.95.89-2.35,1.47-4.22,1.75-1.83.27-3.28.19-4.34-.25-1.06-.44-1.84-1.24-2.34-2.42l2.98-.9c.27.61.63,1.01,1.09,1.21.46.2,1.22.22,2.27.07.97-.14,1.66-.37,2.07-.68.41-.31.57-.73.49-1.26-.06-.43-.29-.74-.69-.94-.39-.2-1.03-.32-1.91-.37-.67-.04-1.27-.08-1.8-.12-.53-.05-.99-.1-1.37-.17-.38-.07-.7-.13-.94-.21-.73-.24-1.31-.59-1.75-1.06s-.71-1.1-.82-1.87c-.19-1.27.16-2.34,1.03-3.19s2.21-1.42,4.02-1.68c1.58-.23,2.91-.11,3.96.36,1.05.47,1.79,1.28,2.2,2.41l-3.02.77c-.18-.53-.48-.9-.91-1.11s-1.06-.25-1.89-.13c-.82.12-1.42.32-1.8.59-.38.27-.53.65-.46,1.14.06.39.26.67.61.85.35.18.91.29,1.68.33,1.07.06,2.03.14,2.88.25.84.11,1.53.28,2.07.52.53.24.98.58,1.34,1.03.36.45.6,1.05.71,1.81Z"/>
    <path class="st3" d="M-992.27,267.4c.18-1.12.55-2,1.11-2.64.56-.64,1.32-1.09,2.27-1.36,1.38-.38,2.55-.25,3.52.39.97.64,1.69,1.78,2.14,3.41l2.29,8.23-3.36.94-2.03-7.27c-.32-1.14-.75-1.95-1.29-2.41-.54-.46-1.2-.58-1.98-.37-.82.23-1.38.76-1.68,1.6s-.3,1.81,0,2.9l1.94,6.95-3.37.94-4.96-17.81,3.37-.94,1.35,4.86c.08.29.16.58.23.87s.14.58.21.86c.07.28.12.57.18.85h.05Z"/>
    <path class="st3" d="M-969.23,263.68l2.88,5.76-3.29,1.64-7.84-15.7,11.58-5.78,1.27,2.54-8.29,4.14,2.43,4.86,8.04-4.01,1.27,2.54-8.04,4.01Z"/>
    <path class="st3" d="M-955.77,256.66c.73,1.09,1.48,1.78,2.25,2.07.78.29,1.54.18,2.28-.32.51-.34.86-.73,1.04-1.18.18-.44.19-.93.02-1.46l2.91-1.59c.56,2.56-.38,4.65-2.81,6.27-1.69,1.12-3.31,1.49-4.89,1.09-1.57-.4-2.99-1.55-4.27-3.46-1.23-1.85-1.72-3.58-1.47-5.19.26-1.61,1.23-2.97,2.91-4.1,1.61-1.07,3.2-1.36,4.76-.86,1.56.5,3.03,1.78,4.4,3.84l.05.08-7.19,4.79ZM-952.62,251.92c-.66-.87-1.33-1.4-2.01-1.6-.68-.2-1.34-.08-1.99.34-.69.46-1.05,1.05-1.11,1.77-.05.72.2,1.52.75,2.39l4.35-2.9Z"/>
    <path class="st3" d="M-944.01,248.13c.85,1,1.68,1.59,2.48,1.79.8.19,1.55,0,2.23-.58.47-.4.76-.83.89-1.29.12-.46.08-.95-.15-1.45l2.7-1.92c.86,2.48.18,4.66-2.05,6.56-1.54,1.32-3.12,1.87-4.72,1.66s-3.16-1.19-4.65-2.94c-1.45-1.69-2.14-3.35-2.07-4.98s.87-3.1,2.41-4.41c1.47-1.26,3.01-1.73,4.62-1.41,1.61.31,3.22,1.41,4.82,3.29l.06.08-6.58,5.61ZM-941.44,243.05c-.76-.78-1.49-1.24-2.19-1.35-.7-.12-1.35.07-1.93.58-.62.53-.92,1.16-.89,1.89.04.72.38,1.49,1.03,2.29l3.98-3.4Z"/>
    <path class="st3" d="M-924.94,238.09c-.07-.04-.22-.14-.44-.3-.22-.15-.45-.33-.7-.53-.25-.2-.45-.37-.61-.52l-.04.04c.34.83.42,1.65.24,2.45s-.63,1.59-1.35,2.38c-1.06,1.16-2.33,1.64-3.81,1.44-1.48-.2-3.03-1.04-4.66-2.52-1.65-1.51-2.62-3-2.91-4.49-.29-1.49.12-2.84,1.24-4.06.64-.7,1.35-1.18,2.11-1.42s1.56-.24,2.39.02l.02-.02-1.65-1.48-3.63-3.32,2.36-2.58,11.47,10.49c.31.28.65.58,1.02.9s.78.66,1.22,1.01l-2.29,2.5ZM-933.83,237.85c1.13,1.03,2.13,1.63,3,1.81.88.18,1.62-.07,2.24-.75.62-.68.81-1.48.55-2.4-.26-.92-.94-1.88-2.04-2.89-1.07-.98-2.06-1.56-2.97-1.73-.91-.17-1.68.09-2.32.79-.63.69-.82,1.46-.57,2.31.25.85.96,1.8,2.11,2.86Z"/>
    <path class="st3" d="M-916.46,220.45c1.06.75,1.59,1.78,1.58,3.08-.01,1.3-.56,2.72-1.65,4.26-1.07,1.51-2.13,2.5-3.18,2.96s-2.17.47-3.37.02l1.4-2.78c.62.23,1.17.24,1.63.05s1-.73,1.62-1.59c.57-.8.88-1.45.94-1.96.05-.51-.13-.92-.57-1.23-.35-.25-.74-.3-1.15-.15-.42.15-.95.52-1.59,1.13-.49.46-.93.86-1.33,1.21-.4.35-.76.64-1.07.88-.31.23-.58.41-.8.54-.68.37-1.34.54-1.98.53-.64-.01-1.28-.24-1.92-.7-1.05-.74-1.58-1.73-1.59-2.95-.01-1.22.51-2.58,1.56-4.06.93-1.31,1.93-2.18,3-2.62,1.07-.44,2.16-.41,3.26.07l-1.53,2.72c-.51-.24-.98-.27-1.43-.11-.45.16-.91.59-1.4,1.28-.48.68-.75,1.25-.82,1.71-.07.46.1.84.51,1.12.32.23.66.27,1.04.15.37-.13.84-.46,1.39-.99.79-.74,1.51-1.37,2.17-1.91.66-.54,1.26-.92,1.81-1.14.54-.22,1.1-.3,1.67-.26.57.05,1.18.29,1.81.74Z"/>
  </g>
  <g>
    <path class="st3" d="M-351.14,235.09c1.95,0,3.3-.97,4.04-2.92l2.8,1.06c-.6,1.48-1.49,2.59-2.65,3.31s-2.56,1.08-4.19,1.08-3.04-.31-4.2-.94c-1.16-.63-2.04-1.54-2.64-2.73-.61-1.19-.91-2.62-.91-4.3s.29-3.11.87-4.27c.58-1.16,1.44-2.05,2.57-2.65,1.13-.61,2.52-.91,4.16-.91,1.8,0,3.27.36,4.4,1.08,1.13.72,1.93,1.79,2.39,3.19l-2.83.77c-.24-.77-.71-1.38-1.41-1.84-.7-.45-1.53-.68-2.48-.68-1.45,0-2.56.45-3.31,1.35-.75.9-1.13,2.22-1.13,3.96,0,1.18.17,2.17.52,2.98.35.81.85,1.42,1.53,1.84.67.42,1.49.63,2.47.63Z"/>
    <path class="st3" d="M-339.11,227.96c.41-.9.93-1.56,1.56-1.96.62-.41,1.37-.61,2.23-.61,1.25,0,2.21.38,2.88,1.15.67.77,1,1.9,1,3.38v7.48h-3.05v-6.61c0-1.04-.17-1.82-.52-2.33-.35-.52-.88-.77-1.58-.77-.74,0-1.34.32-1.79.95-.45.64-.68,1.45-.68,2.45v6.31h-3.06v-16.18h3.06v4.41c0,.26,0,.52-.01.78,0,.26-.02.52-.03.77s-.03.51-.05.76h.04Z"/>
    <path class="st3" d="M-325.76,237.62c-1.14,0-2.03-.31-2.67-.93-.64-.62-.96-1.5-.96-2.62,0-1.22.4-2.15,1.19-2.78s1.95-.96,3.46-.99l2.54-.04v-.6c0-.77-.14-1.34-.4-1.72-.27-.37-.71-.56-1.32-.56-.57,0-.98.13-1.25.39-.27.26-.43.68-.5,1.28l-3.19-.15c.4-2.33,2.09-3.5,5.07-3.5,1.49,0,2.64.37,3.44,1.1.81.73,1.21,1.78,1.21,3.13v4.3c0,.66.07,1.12.22,1.37.15.25.4.38.75.38.23,0,.46-.02.68-.07v1.66c-.38.09-.7.17-.97.21-.27.05-.6.07-.99.07-.77,0-1.34-.19-1.71-.57-.37-.38-.59-.93-.66-1.67h-.07c-.43.77-.97,1.35-1.61,1.74s-1.4.58-2.27.58ZM-322.2,231.94l-1.57.02c-.72.04-1.22.11-1.52.23-.3.13-.52.33-.68.59-.16.26-.23.61-.23,1.05,0,.56.13.98.39,1.25.26.27.6.41,1.03.41.48,0,.92-.13,1.32-.39.39-.26.7-.62.93-1.08s.34-.95.34-1.47v-.6Z"/>
    <path class="st3" d="M-313.01,231.08v6.32h-3.06v-9.16c0-.63,0-1.15-.03-1.55-.02-.4-.04-.76-.06-1.08h2.92c.01.09.03.29.05.62s.04.65.06.99c.02.34.03.58.03.74h.04c.38-.9.85-1.55,1.41-1.96.56-.41,1.24-.61,2.02-.61.9,0,1.63.21,2.18.64.55.43.92,1.07,1.11,1.93h.07c.4-.92.88-1.57,1.44-1.97.56-.4,1.27-.6,2.14-.6,1.15,0,2.02.39,2.63,1.17s.91,1.9.91,3.36v7.49h-3.04v-6.62c0-1.04-.15-1.82-.45-2.33-.3-.52-.74-.77-1.34-.77s-1.09.29-1.49.87c-.4.58-.6,1.38-.6,2.39v6.46h-3.04v-6.62c0-1.04-.15-1.82-.45-2.33-.3-.52-.75-.77-1.34-.77s-1.12.32-1.51.95c-.39.63-.58,1.45-.58,2.45Z"/>
    <path class="st3" d="M-285.02,231.49c0,1.91-.53,3.41-1.59,4.5-1.06,1.09-2.53,1.63-4.4,1.63s-3.28-.55-4.33-1.64c-1.05-1.09-1.57-2.59-1.57-4.49s.52-3.39,1.57-4.48c1.05-1.09,2.51-1.63,4.39-1.63s3.4.52,4.41,1.58c1.01,1.05,1.52,2.56,1.52,4.53ZM-288.22,231.49c0-1.4-.23-2.42-.69-3.05-.46-.63-1.12-.95-1.99-.95-.93,0-1.63.33-2.09,1-.47.67-.7,1.67-.7,3s.23,2.32.68,3c.45.69,1.11,1.03,1.97,1.03.95,0,1.65-.34,2.12-1.01.47-.67.7-1.68.7-3.03Z"/>
    <path class="st3" d="M-279.52,232.98v4.43h-3.06v-16.18h3.06v9.27l4.21-4.88h3.29l-4.14,4.6,4.46,7.19h-3.35l-3.15-5.34-1.32.92Z"/>
    <path class="st3" d="M-260.82,231.77v5.64h-3.22v-15.36h11.33v2.48h-8.11v4.75h7.86v2.49h-7.86Z"/>
    <path class="st3" d="M-247.27,221.22v2.26h-3.06v-2.26h3.06ZM-247.27,225.61v11.79h-3.06v-11.79h3.06Z"/>
    <path class="st3" d="M-234.18,233.96c0,1.14-.47,2.04-1.4,2.69-.93.65-2.23.98-3.88.98s-2.86-.26-3.72-.77c-.86-.51-1.43-1.31-1.72-2.39l2.69-.4c.15.56.42.96.79,1.19.37.23,1.03.35,1.96.35.86,0,1.48-.11,1.88-.33.39-.22.59-.56.59-1.02,0-.38-.16-.68-.47-.9-.32-.22-.85-.41-1.61-.56-.57-.12-1.09-.23-1.54-.34-.45-.11-.84-.22-1.17-.32-.32-.11-.59-.21-.79-.3-.6-.3-1.06-.68-1.38-1.14-.32-.47-.47-1.04-.47-1.72,0-1.13.43-2,1.3-2.63.87-.63,2.1-.94,3.69-.94,1.4,0,2.53.27,3.38.82s1.39,1.33,1.6,2.37l-2.71.28c-.09-.48-.3-.84-.64-1.07s-.88-.35-1.62-.35-1.27.09-1.64.28-.54.5-.54.93c0,.34.14.61.42.81.28.2.75.37,1.41.5.92.19,1.74.38,2.46.58.72.2,1.29.44,1.73.71.43.28.77.63,1.03,1.06.26.43.39.99.39,1.66Z"/>
    <path class="st3" d="M-228.69,227.96c.41-.9.93-1.56,1.56-1.96.62-.41,1.37-.61,2.23-.61,1.25,0,2.21.38,2.88,1.15.67.77,1,1.9,1,3.38v7.48h-3.05v-6.61c0-1.04-.17-1.82-.52-2.33-.35-.52-.88-.77-1.58-.77-.74,0-1.34.32-1.79.95-.45.64-.68,1.45-.68,2.45v6.31h-3.06v-16.18h3.06v4.41c0,.26,0,.52-.01.78,0,.26-.02.52-.03.77s-.03.51-.05.76h.04Z"/>
    <path class="st3" d="M-208.72,231.77v5.64h-3.22v-15.36h11.33v2.48h-8.11v4.75h7.86v2.49h-7.86Z"/>
    <path class="st3" d="M-195.7,232.09c0,1.15.21,2.01.64,2.6.43.59,1.03.88,1.82.88.54,0,.98-.12,1.32-.35.35-.24.59-.59.73-1.05l2.89.25c-.84,2.14-2.53,3.21-5.09,3.21-1.77,0-3.14-.53-4.09-1.58s-1.43-2.58-1.43-4.6.48-3.44,1.45-4.49c.97-1.05,2.34-1.57,4.11-1.57s2.99.56,3.88,1.68,1.34,2.77,1.34,4.93v.09h-7.57ZM-191.1,230.17c-.06-.95-.29-1.67-.69-2.14s-.94-.71-1.61-.71c-.72,0-1.27.25-1.66.75-.39.5-.59,1.2-.62,2.1h4.58Z"/>
    <path class="st3" d="M-183.29,232.09c0,1.15.21,2.01.64,2.6.43.59,1.03.88,1.82.88.54,0,.98-.12,1.32-.35.35-.24.59-.59.73-1.05l2.89.25c-.84,2.14-2.53,3.21-5.09,3.21-1.77,0-3.14-.53-4.09-1.58s-1.43-2.58-1.43-4.6.48-3.44,1.45-4.49,2.34-1.57,4.11-1.57,2.99.56,3.88,1.68,1.34,2.77,1.34,4.93v.09h-7.57ZM-178.69,230.17c-.06-.95-.29-1.67-.69-2.14s-.94-.71-1.61-.71c-.72,0-1.27.25-1.66.75-.39.5-.59,1.2-.62,2.1h4.58Z"/>
    <path class="st3" d="M-165.76,237.4c-.01-.07-.04-.22-.07-.46-.03-.23-.05-.49-.07-.76-.02-.28-.03-.51-.03-.7h-.04c-.33.71-.81,1.25-1.44,1.6-.63.36-1.4.53-2.33.53-1.37,0-2.44-.54-3.18-1.61-.75-1.07-1.12-2.57-1.12-4.5s.39-3.46,1.18-4.53c.79-1.06,1.91-1.6,3.35-1.6.83,0,1.56.17,2.16.52.61.35,1.07.87,1.4,1.56h.02l-.02-1.94v-4.31h3.06v13.6c0,.36,0,.76.02,1.19.01.43.04.89.07,1.38h-2.97ZM-170.85,231.51c0,1.34.2,2.34.61,3.01s1,1,1.8,1,1.43-.35,1.87-1.06.67-1.72.67-3.03-.21-2.25-.64-2.94c-.43-.69-1.05-1.03-1.88-1.03s-1.43.33-1.83,1c-.4.67-.6,1.68-.6,3.05Z"/>
    <path class="st3" d="M-149.82,233.96c0,1.14-.47,2.04-1.4,2.69-.93.65-2.23.98-3.88.98s-2.86-.26-3.72-.77c-.86-.51-1.43-1.31-1.72-2.39l2.69-.4c.15.56.42.96.79,1.19.37.23,1.03.35,1.96.35.86,0,1.48-.11,1.88-.33.39-.22.59-.56.59-1.02,0-.38-.16-.68-.47-.9-.32-.22-.85-.41-1.61-.56-.57-.12-1.09-.23-1.54-.34-.45-.11-.84-.22-1.17-.32-.32-.11-.59-.21-.79-.3-.6-.3-1.06-.68-1.38-1.14-.32-.47-.47-1.04-.47-1.72,0-1.13.43-2,1.3-2.63.87-.63,2.1-.94,3.69-.94,1.4,0,2.53.27,3.38.82s1.39,1.33,1.6,2.37l-2.71.28c-.09-.48-.3-.84-.64-1.07s-.88-.35-1.62-.35-1.27.09-1.64.28-.54.5-.54.93c0,.34.14.61.42.81.28.2.75.37,1.41.5.92.19,1.74.38,2.46.58.72.2,1.29.44,1.73.71.43.28.77.63,1.03,1.06.26.43.39.99.39,1.66Z"/>
  </g>
  <g>
    <path class="st0" d="M27.06,113.03s-.04,0-.05-.03c0-.01,0-.03,0-.04,1.44-1.45,3.06-2.67,4.88-3.63,6.39-3.41,13.42-1.51,18.67,2.98,1.88,1.61,3.55,3.35,5.02,5.22.51.64.97,1.3,1.39,1.96.01.02,0,.04-.01.05,0,0-.02,0-.03,0-.04,0-.08-.02-.11-.05-.98-.75-1.99-1.49-3.05-2.22-1.05-.72-2.13-1.35-3.24-1.91-5.25-2.64-11.02-4.06-16.85-3.61-1.03.08-2.32.25-3.86.51-.9.15-2.13.55-2.77.76h0Z"/>
    <path class="st0" d="M27.52,118.89c.03-.17.02-.31-.03-.43-.35-.74-.8-1.54-1.35-2.39,1.82-.42,3.35-.71,4.59-.86,6.6-.82,12.89.13,18.86,2.85,3.84,1.75,7.21,4.07,10.1,6.97.39.39.75.78,1.07,1.16.04.04.1.05.14.02,0,0,0,0,.01-.01,1.82-2.14,3.78-4.13,5.88-5.98,1.3-1.15,2.44-2.02,3.4-2.62,1.13-.71,2.28-1.29,3.45-1.75.06-.03.14,0,.16.07,0,.02,0,.04,0,.06-.25,2.19-.82,4.32-1.73,6.44-1.23,2.85-2.78,5.54-4.65,8.08-.05.07-.05.18,0,.25,1.97,2.69,3.57,5.56,4.81,8.62.81,1.99,1.36,4.05,1.67,6.19.01.08-.04.15-.12.16-.01,0-.03,0-.04,0-.13-.02-.31-.08-.54-.16-1.76-.66-3.41-1.62-4.98-2.9-2.6-2.12-5.01-4.48-7.25-7.11-.04-.05-.11-.05-.16-.01,0,0-.01.01-.02.02-.16.22-.31.41-.46.56-2.02,2.1-4.22,3.91-6.59,5.42-7.06,4.49-14.81,6.27-23.24,5.33-.09,0-.15-.09-.14-.18,0-.02.01-.05.03-.07,2.63-3.96,3.94-8.23,3.93-12.79,0-2.42-.36-4.69-1.08-6.8-1.03-3.05-2.97-6.02-5.53-8.09-.05-.04-.12-.05-.21-.01h0Z"/>
    <path class="st3" d="M26.14,116.07c.55.85,1,1.65,1.35,2.39.05.11.06.25.03.43,1.34,2.09,2.27,4.29,2.79,6.62.45,1.99.66,4.06.63,6.2-.06,5.06-1.76,10.03-4.76,14.09-.04.06-.12.09-.19.07-2.29-.6-4.54-1.46-6.75-2.57-5.31-2.68-9.68-7.03-12.6-12.18-.06-.1-.05-.23,0-.32.67-1.05,1.32-2.01,1.93-2.88,2.66-3.79,6.38-6.93,10.53-9.1.21-.11,1.07-.52,2.58-1.24.73-.34,2.21-.84,4.44-1.49h0ZM20.13,123.95c-1.32.22-2.2,1.49-1.98,2.82s1.48,2.24,2.8,2.02q.88-.15,0,0c1.32-.22,2.2-1.49,1.98-2.82s-1.48-2.24-2.8-2.02h0Z"/>
    <path class="st0" d="M3.37,136c2.18-.34,4.22,1.19,4.57,3.41.34,2.22-1.14,4.29-3.32,4.63h0c-2.18.34-4.22-1.19-4.57-3.41H.05c-.34-2.22,1.14-4.29,3.32-4.63h0ZM3.37,138.36c0-.47-.38-.85-.85-.85h0c-.47,0-.85.38-.85.85h0c0,.47.38.85.85.85h0c.47,0,.85-.38.85-.85h0Z"/>
    <path class="st0" d="M16.5,145.56c1.09,2.48-.07,5.39-2.59,6.5-2.52,1.11-5.45,0-6.54-2.49-1.09-2.48.07-5.39,2.59-6.5,2.52-1.11,5.45,0,6.54,2.49ZM11.1,145.62c0-.56-.45-1.02-1.02-1.02h0c-.56,0-1.02.45-1.02,1.02s.45,1.02,1.02,1.02,1.02-.45,1.02-1.02h0Z"/>
  </g>
  <g>
    <path class="st3" d="M113.85,137.24c2.48,0,4.19-1.24,5.14-3.71l3.56,1.34c-.77,1.88-1.89,3.29-3.38,4.21-1.48.92-3.26,1.38-5.33,1.38s-3.87-.4-5.34-1.2c-1.47-.8-2.59-1.96-3.36-3.47-.77-1.52-1.16-3.34-1.16-5.46s.37-3.95,1.11-5.43c.74-1.48,1.83-2.6,3.27-3.38s3.21-1.16,5.29-1.16c2.29,0,4.16.46,5.6,1.38,1.44.92,2.45,2.27,3.04,4.05l-3.6.98c-.3-.98-.9-1.76-1.79-2.34-.89-.58-1.94-.87-3.15-.87-1.85,0-3.25.57-4.21,1.72-.96,1.15-1.43,2.82-1.43,5.03,0,1.5.22,2.76.66,3.78.44,1.03,1.09,1.8,1.94,2.33.85.53,1.9.8,3.14.8Z"/>
    <path class="st3" d="M129.16,128.18c.53-1.15,1.19-1.98,1.98-2.49s1.74-.78,2.84-.78c1.59,0,2.81.49,3.66,1.47.85.98,1.28,2.41,1.28,4.3v9.51h-3.88v-8.4c0-1.32-.22-2.31-.67-2.97-.44-.66-1.11-.98-2.01-.98-.94,0-1.7.4-2.28,1.21-.58.81-.87,1.85-.87,3.11v8.02h-3.9v-20.57h3.9v5.61c0,.33,0,.67-.01,1,0,.33-.02.66-.03.98-.01.32-.04.65-.06.97h.06Z"/>
    <path class="st3" d="M146.12,140.46c-1.45,0-2.58-.4-3.4-1.19-.81-.79-1.22-1.9-1.22-3.33,0-1.55.51-2.73,1.52-3.53,1.01-.8,2.48-1.22,4.4-1.26l3.23-.06v-.76c0-.98-.17-1.71-.51-2.18-.34-.48-.9-.71-1.68-.71-.72,0-1.25.16-1.59.49s-.55.87-.63,1.63l-4.06-.19c.51-2.97,2.66-4.45,6.44-4.45,1.89,0,3.35.47,4.38,1.4,1.03.93,1.54,2.26,1.54,3.98v5.46c0,.84.09,1.42.28,1.74s.51.48.95.48c.29,0,.58-.03.86-.08v2.11c-.48.12-.89.21-1.23.27s-.76.09-1.26.09c-.98,0-1.7-.24-2.17-.72-.47-.48-.75-1.19-.84-2.12h-.08c-.54.98-1.23,1.72-2.05,2.21-.82.49-1.78.74-2.88.74ZM150.65,133.24l-2,.03c-.92.05-1.56.14-1.93.29-.38.17-.67.42-.87.75-.2.33-.3.78-.3,1.33,0,.71.16,1.24.49,1.59.33.35.76.52,1.31.52.61,0,1.17-.17,1.68-.5.5-.33.89-.79,1.18-1.38.29-.59.43-1.21.43-1.86v-.76Z"/>
    <path class="st3" d="M162.34,132.14v8.04h-3.9v-11.64c0-.8-.01-1.46-.03-1.98s-.05-.97-.08-1.38h3.71c.02.11.04.37.07.78.03.41.05.83.08,1.26.02.43.03.74.03.94h.06c.48-1.15,1.08-1.98,1.79-2.5.72-.52,1.57-.78,2.57-.78,1.15,0,2.07.27,2.77.82.7.55,1.17,1.36,1.41,2.45h.08c.51-1.16,1.12-2,1.83-2.51.71-.51,1.62-.76,2.72-.76,1.46,0,2.57.5,3.34,1.49.77.99,1.15,2.42,1.15,4.28v9.52h-3.87v-8.41c0-1.32-.19-2.31-.57-2.97-.38-.66-.95-.98-1.7-.98s-1.39.37-1.9,1.1c-.51.73-.76,1.75-.76,3.04v8.22h-3.87v-8.41c0-1.32-.19-2.31-.57-2.97-.38-.66-.95-.98-1.71-.98s-1.42.4-1.92,1.21c-.49.8-.74,1.84-.74,3.12Z"/>
    <path class="st3" d="M197.93,132.67c0,2.43-.67,4.34-2.02,5.72s-3.22,2.07-5.6,2.07-4.17-.69-5.5-2.08c-1.33-1.39-2-3.29-2-5.71s.67-4.31,2-5.69c1.33-1.38,3.19-2.07,5.59-2.07s4.32.67,5.61,2,1.93,3.25,1.93,5.76ZM193.85,132.67c0-1.78-.29-3.08-.87-3.88-.58-.8-1.43-1.21-2.54-1.21-1.18,0-2.07.42-2.66,1.27-.59.85-.89,2.12-.89,3.82s.29,2.94.87,3.82c.58.87,1.41,1.31,2.5,1.31,1.2,0,2.1-.43,2.7-1.28.6-.85.89-2.14.89-3.85Z"/>
    <path class="st3" d="M204.91,134.55v5.63h-3.9v-20.57h3.9v11.78l5.35-6.21h4.19l-5.27,5.85,5.67,9.15h-4.25l-4-6.79-1.68,1.16Z"/>
    <path class="st3" d="M228.7,133.02v7.17h-4.09v-19.53h14.4v3.16h-10.31v6.04h9.99v3.16h-9.99Z"/>
    <path class="st3" d="M245.92,119.61v2.87h-3.9v-2.87h3.9ZM245.92,125.19v15h-3.9v-15h3.9Z"/>
    <path class="st3" d="M262.56,135.8c0,1.45-.59,2.59-1.78,3.42-1.19.83-2.83,1.24-4.93,1.24s-3.64-.33-4.73-.98-1.82-1.67-2.18-3.04l3.42-.51c.19.71.53,1.21,1,1.51s1.31.44,2.49.44c1.09,0,1.88-.14,2.38-.42.5-.28.75-.71.75-1.3,0-.48-.2-.86-.6-1.14-.4-.28-1.08-.52-2.04-.71-.73-.15-1.38-.29-1.96-.43-.58-.14-1.07-.27-1.48-.41s-.75-.26-1-.38c-.77-.38-1.35-.86-1.75-1.46-.4-.59-.6-1.32-.6-2.19,0-1.43.55-2.55,1.66-3.35,1.1-.8,2.67-1.2,4.69-1.2,1.78,0,3.22.35,4.3,1.04,1.09.69,1.76,1.7,2.03,3.01l-3.45.36c-.11-.61-.38-1.06-.82-1.37-.43-.3-1.12-.45-2.07-.45s-1.62.12-2.08.35c-.46.24-.69.63-.69,1.18,0,.43.18.78.53,1.03.36.25.95.46,1.79.63,1.17.24,2.21.49,3.12.74.91.25,1.64.56,2.2.91.54.35.98.8,1.31,1.35s.49,1.25.49,2.11Z"/>
    <path class="st3" d="M269.54,128.18c.53-1.15,1.19-1.98,1.98-2.49s1.74-.78,2.84-.78c1.59,0,2.81.49,3.66,1.47.85.98,1.28,2.41,1.28,4.3v9.51h-3.88v-8.4c0-1.32-.22-2.31-.67-2.97-.44-.66-1.11-.98-2.01-.98-.94,0-1.7.4-2.28,1.21-.58.81-.87,1.85-.87,3.11v8.02h-3.9v-20.57h3.9v5.61c0,.33,0,.67-.01,1,0,.33-.02.66-.03.98-.01.32-.04.65-.06.97h.06Z"/>
    <path class="st3" d="M294.93,133.02v7.17h-4.09v-19.53h14.4v3.16h-10.31v6.04h9.99v3.16h-9.99Z"/>
    <path class="st3" d="M311.48,133.43c0,1.46.27,2.56.81,3.31.54.74,1.31,1.12,2.31,1.12.68,0,1.25-.15,1.68-.45.44-.3.75-.75.92-1.34l3.67.32c-1.06,2.72-3.22,4.07-6.47,4.07-2.25,0-3.99-.67-5.2-2-1.21-1.33-1.82-3.28-1.82-5.84s.62-4.38,1.84-5.71c1.23-1.33,2.97-2,5.22-2s3.8.71,4.93,2.14c1.14,1.43,1.71,3.52,1.71,6.27v.11h-9.62ZM317.33,130.99c-.07-1.21-.37-2.12-.87-2.72-.51-.6-1.19-.91-2.05-.91-.92,0-1.62.32-2.11.96-.49.64-.75,1.53-.78,2.67h5.82Z"/>
    <path class="st3" d="M327.27,133.43c0,1.46.27,2.56.81,3.31.54.74,1.31,1.12,2.31,1.12.68,0,1.25-.15,1.68-.45.44-.3.75-.75.92-1.34l3.67.32c-1.06,2.72-3.22,4.07-6.47,4.07-2.25,0-3.99-.67-5.2-2-1.21-1.33-1.82-3.28-1.82-5.84s.62-4.38,1.84-5.71c1.23-1.33,2.97-2,5.22-2s3.8.71,4.93,2.14c1.14,1.43,1.71,3.52,1.71,6.27v.11h-9.62ZM333.11,130.99c-.07-1.21-.37-2.12-.87-2.72-.51-.6-1.19-.91-2.05-.91-.92,0-1.62.32-2.11.96-.49.64-.75,1.53-.78,2.67h5.82Z"/>
    <path class="st3" d="M349.55,140.18c-.02-.09-.05-.29-.08-.58s-.07-.62-.09-.97c-.02-.35-.04-.65-.04-.89h-.05c-.43.91-1.04,1.58-1.83,2.04s-1.78.68-2.97.68c-1.75,0-3.1-.68-4.05-2.04-.95-1.36-1.43-3.27-1.43-5.72s.5-4.4,1.5-5.76,2.42-2.03,4.26-2.03c1.06,0,1.98.22,2.75.67.77.44,1.37,1.1,1.78,1.98h.03l-.03-2.47v-5.47h3.89v17.3c0,.46,0,.97.03,1.51.02.55.05,1.13.08,1.76h-3.77ZM343.08,132.7c0,1.7.26,2.98.77,3.83.51.85,1.28,1.28,2.29,1.28s1.82-.45,2.38-1.35.85-2.18.85-3.85-.27-2.86-.81-3.74c-.54-.87-1.34-1.31-2.39-1.31s-1.82.42-2.33,1.27c-.51.85-.76,2.14-.76,3.87Z"/>
    <path class="st3" d="M369.81,135.8c0,1.45-.59,2.59-1.78,3.42-1.19.83-2.83,1.24-4.93,1.24s-3.64-.33-4.73-.98-1.82-1.67-2.18-3.04l3.42-.51c.19.71.53,1.21,1,1.51s1.31.44,2.49.44c1.09,0,1.88-.14,2.38-.42.5-.28.75-.71.75-1.3,0-.48-.2-.86-.6-1.14-.4-.28-1.08-.52-2.04-.71-.73-.15-1.38-.29-1.96-.43-.58-.14-1.07-.27-1.48-.41s-.75-.26-1-.38c-.77-.38-1.35-.86-1.75-1.46-.4-.59-.6-1.32-.6-2.19,0-1.43.55-2.55,1.66-3.35,1.1-.8,2.67-1.2,4.69-1.2,1.78,0,3.22.35,4.3,1.04,1.09.69,1.76,1.7,2.03,3.01l-3.45.36c-.11-.61-.38-1.06-.82-1.37-.43-.3-1.12-.45-2.07-.45s-1.62.12-2.08.35c-.46.24-.69.63-.69,1.18,0,.43.18.78.53,1.03.36.25.95.46,1.79.63,1.17.24,2.21.49,3.12.74.91.25,1.64.56,2.2.91.54.35.98.8,1.31,1.35s.49,1.25.49,2.11Z"/>
  </g>
  <g>
    <rect class="st0" x="-793.14" y="-321.49" width="283.46" height="283.46"/>
    <path class="st4" d="M-680.16-229.14c-.06.02-.13-.01-.15-.07-.01-.04,0-.09.03-.12,4.17-4.22,8.89-7.74,14.16-10.55,18.55-9.89,38.96-4.39,54.21,8.64,5.45,4.66,10.31,9.71,14.58,15.16,1.47,1.87,2.81,3.77,4.04,5.69.03.05.02.12-.03.15-.02.01-.05.02-.07.02-.13-.02-.24-.07-.33-.14-2.84-2.19-5.79-4.33-8.86-6.43-3.05-2.08-6.19-3.93-9.41-5.56-15.25-7.66-31.99-11.78-48.91-10.48-3,.23-6.74.72-11.21,1.47-2.6.44-6.18,1.59-8.04,2.22h0Z"/>
    <path class="st4" d="M-678.81-212.1c.09-.5.07-.91-.08-1.24-1.01-2.16-2.31-4.47-3.92-6.95,5.29-1.22,9.73-2.06,13.32-2.51,19.17-2.37,37.43.38,54.77,8.27,11.15,5.07,20.93,11.81,29.33,20.22,1.13,1.13,2.17,2.26,3.11,3.38.1.13.29.15.42.05.01-.01.03-.03.04-.04,5.28-6.21,10.97-12,17.07-17.37,3.78-3.33,7.08-5.87,9.89-7.61,3.29-2.05,6.62-3.74,10.01-5.08.19-.07.4.02.47.21.02.06.03.12.02.18-.72,6.36-2.38,12.54-5.03,18.69-3.56,8.26-8.06,16.08-13.51,23.45-.16.21-.16.51,0,.72,5.71,7.8,10.36,16.15,13.95,25.01,2.34,5.77,3.96,11.76,4.85,17.96.03.23-.13.44-.35.47-.04,0-.08,0-.12,0-.38-.06-.91-.22-1.58-.47-5.1-1.91-9.91-4.72-14.45-8.41-7.54-6.14-14.56-13.02-21.03-20.63-.12-.14-.32-.15-.46-.04-.02.02-.04.04-.06.06-.47.64-.91,1.18-1.32,1.61-5.86,6.1-12.24,11.34-19.15,15.74-20.49,13.03-42.98,18.19-67.48,15.47-.26-.03-.44-.26-.41-.52,0-.07.03-.14.07-.2,7.63-11.5,11.44-23.88,11.42-37.13,0-7.03-1.05-13.61-3.13-19.75-2.99-8.85-8.62-17.47-16.04-23.5-.15-.12-.35-.14-.61-.04h0Z"/>
    <path class="st3" d="M-682.82-220.29c1.61,2.48,2.92,4.79,3.92,6.95.15.32.18.74.08,1.24,3.88,6.06,6.58,12.47,8.11,19.22,1.31,5.78,1.92,11.78,1.84,17.99-.19,14.7-5.1,29.13-13.81,40.9-.13.17-.35.25-.56.2-6.65-1.74-13.18-4.23-19.59-7.46-15.42-7.77-28.1-20.41-36.59-35.37-.17-.29-.15-.66.03-.94,1.96-3.04,3.83-5.83,5.62-8.37,7.72-11,18.52-20.11,30.57-26.43.62-.32,3.12-1.52,7.5-3.59,2.11-.99,6.41-2.44,12.88-4.33h0ZM-700.26-197.42c-3.83.65-6.4,4.32-5.74,8.2s4.29,6.5,8.12,5.85q2.55-.43,0,0c3.83-.65,6.4-4.32,5.74-8.2-.66-3.88-4.29-6.5-8.12-5.85h0Z"/>
    <path class="st4" d="M-748.92-162.44c6.32-.98,12.26,3.45,13.25,9.89,1,6.44-3.32,12.46-9.64,13.44h0c-6.32.98-12.26-3.45-13.25-9.89h0c-1-6.44,3.32-12.46,9.64-13.44h0ZM-748.92-155.58c0-1.37-1.11-2.48-2.48-2.48h0c-1.37,0-2.48,1.11-2.48,2.48h0c0,1.37,1.11,2.48,2.48,2.48h0c1.37,0,2.48-1.11,2.48-2.48h0Z"/>
    <path class="st4" d="M-710.8-134.67c3.16,7.21-.21,15.66-7.52,18.87-7.32,3.21-15.82-.03-18.99-7.24-3.16-7.21.21-15.66,7.52-18.87,7.32-3.21,15.82.03,18.99,7.24ZM-726.47-134.52c0-1.63-1.32-2.95-2.95-2.95h0c-1.63,0-2.95,1.32-2.95,2.95s1.32,2.95,2.95,2.95,2.95-1.32,2.95-2.95h0Z"/>
    <circle class="st4" cx="-699.07" cy="-190.4" r="7.22"/>
  </g>
</svg>